# xmcd CD database file
#
# Track frame offsets:
#	150
#	12681
#	30170
#	44963
#	57055
#	73027
#	85656
#	100422
#	115384
#	130352
#	144350
#	157888
#	172469
#	185421
#	201602
#	214422
#	226187
#	241525
#	256446
#	270305
#	283557
#	295900
#	307197
#	327768
#
# Disc length: 4634 seconds
#
# Revision: 1
# Processed by: cddbd v1.5.2PL0 Copyright (c) Steve Scherf et al.
# Submitted via: CDex 1.51
#
DISCID=6c121818
DTITLE=Fats Waller - The panic is on, cd 1
DYEAR=2005
DGENRE=Jazz
TTITLE0=Snake Hips
TTITLE1=learing House Blues
TTITLE2=Beale Street Blues
TTITLE3=He's Gone Away
TTITLE4=Willow Tree
TTITLE5=Handful of Keys
TTITLE6=Valentine Stomp
TTITLE7=I'm Crazy About My Baby
TTITLE8=Yellow Dog Blues
TTITLE9=Sweetie Pie
TTITLE10=Clothesline Ballet
TTITLE11=Baby Brown
TTITLE12=I Ain't Got Nobody
TTITLE13=I'm Gonna Sit Right Down And Write Myself a Letter
TTITLE14=Twelfth Street Rag
TTITLE15=Got a Bran' New Suit
TTITLE16=Sweet Thing
TTITLE17=The Panic Is On
TTITLE18=Christopher Colombus
TTITLE19=It's a Sin to Tell a Lie
TTITLE20=Nero
TTITLE21=Spring Cleaning
TTITLE22=Honeysuckle Rose
TTITLE23=Blue, Turning Grey Over You
EXTD=YEAR: 2005
EXTT0=
EXTT1=
EXTT2=
EXTT3=
EXTT4=
EXTT5=
EXTT6=
EXTT7=
EXTT8=
EXTT9=
EXTT10=
EXTT11=
EXTT12=
EXTT13=
EXTT14=
EXTT15=
EXTT16=
EXTT17=
EXTT18=
EXTT19=
EXTT20=
EXTT21=
EXTT22=
EXTT23=
PLAYORDER=
